<svg width="248" height="248" viewBox="0 0 248 248" fill="none" xmlns="http://www.w3.org/2000/svg">
<path d="M46.6443 112.512C46.6443 112.512 80.9843 111.137 88.4052 54.6896C94.9952 4.55871 152.901 27.3764 169.64 47.3598C191.323 73.2465 179.764 117.777 207.814 123.403C235.864 129.028 217.547 191.574 174.969 185.587C122.003 178.14 134.818 209.09 118.918 222.19C107.507 231.592 60.7169 222.542 59.1574 188.412C57.8451 159.692 45.7306 159.783 37.1437 156.527C24.7595 151.83 16.956 117.816 46.6443 112.512Z" fill="#F9F9F9"/>
<path d="M183.919 103.026C187.127 93.1277 197.781 87.7234 207.639 90.9187C217.497 94.114 222.943 104.78 219.747 114.638C216.551 124.497 205.925 129.954 196.026 126.746C186.128 123.538 180.723 112.884 183.919 103.026Z" fill="#E2E6ED"/>
<path d="M55.2359 188.973C56.1741 187.295 57.5887 185.933 59.301 185.059C61.5976 183.89 64.2642 183.679 66.7157 184.474C69.1673 185.269 71.2035 187.003 72.3775 189.297C73.2516 191.01 73.5982 192.943 73.3736 194.852C73.1491 196.761 72.3634 198.561 71.1159 200.024C69.8684 201.487 68.2152 202.547 66.3653 203.07C64.5154 203.593 62.5519 203.556 60.7231 202.963C58.8943 202.37 57.2824 201.249 56.0911 199.74C54.8998 198.231 54.1827 196.403 54.0305 194.486C53.8783 192.57 54.2978 190.651 55.2359 188.973Z" fill="#E2E6ED"/>
<path d="M76.3884 77.3567C75.6 78.1449 75.157 79.214 75.1567 80.3288V126.633C75.1567 127.748 75.5996 128.818 76.388 129.606C77.1764 130.394 78.2456 130.837 79.3605 130.837H112.991C114.106 130.837 115.175 130.394 115.963 129.606C116.752 128.818 117.195 127.748 117.195 126.633V80.3918C117.195 79.2769 116.752 78.2077 115.963 77.4193C115.175 76.631 114.106 76.1881 112.991 76.1881L79.3605 76.125C78.2457 76.1252 77.1766 76.5683 76.3884 77.3567Z" fill="#E2E6ED"/>
<path d="M167.64 76.125L134.009 76.1839C132.895 76.1839 131.825 76.6267 131.037 77.4151C130.249 78.2035 129.806 79.2727 129.806 80.3876V101.407C129.806 102.521 130.249 103.591 131.037 104.379C131.825 105.167 132.895 105.61 134.009 105.61H167.64C168.755 105.61 169.824 105.167 170.612 104.379C171.401 103.591 171.843 102.521 171.843 101.407V80.3288C171.843 79.2139 171.401 78.1446 170.612 77.3563C169.824 76.5679 168.755 76.125 167.64 76.125Z" fill="#E2E6ED"/>
<path d="M115.963 171.639C116.751 170.851 117.194 169.782 117.195 168.667V147.648C117.195 146.533 116.752 145.464 115.963 144.675C115.175 143.887 114.106 143.444 112.991 143.444H79.3605C78.2456 143.444 77.1764 143.887 76.388 144.675C75.5996 145.464 75.1567 146.533 75.1567 147.648V168.604C75.1567 169.719 75.5996 170.788 76.388 171.576C77.1764 172.365 78.2456 172.807 79.3605 172.807L112.991 172.866C114.105 172.867 115.174 172.426 115.963 171.639Z" fill="#E2E6ED"/>
<path d="M167.64 118.226H134.009C132.895 118.226 131.825 118.669 131.037 119.457C130.249 120.245 129.806 121.315 129.806 122.43V168.671C129.806 169.786 130.249 170.855 131.037 171.644C131.825 172.432 132.895 172.875 134.009 172.875L167.64 172.816C168.755 172.816 169.824 172.373 170.612 171.585C171.401 170.796 171.843 169.727 171.843 168.612V122.43C171.843 121.315 171.401 120.245 170.612 119.457C169.824 118.669 168.755 118.226 167.64 118.226Z" fill="#E2E6ED"/>
<path d="M194.969 116.494C194.843 116.494 194.726 116.445 194.637 116.357C194.497 116.217 194.46 116.003 194.545 115.824L196.363 112.007C195.755 110.944 195.435 109.739 195.436 108.512C195.443 104.649 198.59 101.506 202.453 101.506H202.474C203.787 101.506 205.069 101.873 206.184 102.565C207.775 103.554 208.887 105.107 209.313 106.937C209.74 108.766 209.43 110.65 208.441 112.241C207.45 113.835 205.898 114.947 204.071 115.374C203.541 115.497 203 115.56 202.462 115.56C201.248 115.56 200.05 115.239 198.988 114.631L195.171 116.449C195.107 116.478 195.038 116.494 194.969 116.494ZM202.453 102.443C199.106 102.443 196.379 105.166 196.374 108.514C196.372 109.653 196.69 110.767 197.292 111.735C197.377 111.871 197.386 112.039 197.317 112.184L195.959 115.036L198.811 113.677C198.873 113.648 198.942 113.632 199.012 113.632C199.099 113.632 199.185 113.656 199.259 113.703C200.228 114.305 201.335 114.623 202.462 114.623C202.928 114.623 203.397 114.569 203.856 114.461C205.44 114.092 206.785 113.128 207.645 111.747C209.418 108.895 208.54 105.133 205.689 103.361C204.723 102.76 203.611 102.443 202.474 102.443C202.471 102.443 202.453 102.443 202.453 102.443Z" fill="white"/>
<path d="M63.9998 198.5C63.4087 198.501 62.8231 198.386 62.277 198.16C61.7309 197.933 61.235 197.601 60.8182 197.182C60.399 196.765 60.0667 196.269 59.8404 195.723C59.6141 195.177 59.4984 194.592 59.5 194C59.5 192.798 59.968 191.669 60.8178 190.818C61.668 189.969 62.7979 189.5 63.9998 189.5C65.2017 189.5 66.3317 189.968 67.1818 190.818C67.601 191.235 67.9334 191.731 68.1597 192.277C68.3859 192.823 68.5016 193.409 68.5 194V194.844C68.4996 195.217 68.3513 195.574 68.0876 195.838C67.824 196.101 67.4665 196.25 67.0937 196.25C66.8126 196.249 66.5384 196.164 66.3059 196.006C66.0735 195.848 65.8934 195.624 65.7886 195.363C65.5786 195.639 65.308 195.862 64.9978 196.016C64.6876 196.169 64.3461 196.25 63.9998 196.25C62.7593 196.25 61.7497 195.241 61.7497 194C61.7497 192.759 62.7593 191.75 63.9998 191.75C65.2404 191.75 66.2499 192.759 66.2499 194V194.844C66.2499 195.309 66.6283 195.688 67.0937 195.688C67.5591 195.688 67.9375 195.309 67.9375 194.844V194C67.9375 192.948 67.5279 191.96 66.7843 191.216C66.4194 190.849 65.9855 190.558 65.5075 190.36C65.0296 190.163 64.5171 190.061 63.9998 190.063C63.4826 190.061 62.9701 190.163 62.4923 190.36C62.0144 190.558 61.5805 190.849 61.2157 191.216C60.849 191.581 60.5582 192.015 60.3603 192.492C60.1623 192.97 60.0611 193.483 60.0625 194C60.0611 194.517 60.1623 195.03 60.3602 195.508C60.5582 195.985 60.8489 196.419 61.2157 196.784C61.5804 197.151 62.0143 197.442 62.4921 197.639C62.9699 197.837 63.4823 197.938 63.9994 197.937C64.8458 197.937 65.6848 197.657 66.3617 197.149C66.3912 197.127 66.4248 197.111 66.4605 197.102C66.4963 197.093 66.5335 197.091 66.5701 197.096C66.6066 197.101 66.6418 197.113 66.6735 197.132C66.7053 197.151 66.7331 197.176 66.7552 197.205C66.7774 197.235 66.7935 197.269 66.8027 197.304C66.8119 197.34 66.8139 197.377 66.8087 197.414C66.8035 197.45 66.7912 197.486 66.7724 197.517C66.7536 197.549 66.7287 197.577 66.6992 197.599C65.9199 198.182 64.9731 198.498 63.9998 198.5ZM63.9998 192.312C63.0694 192.312 62.3122 193.07 62.3122 194C62.3122 194.93 63.0694 195.688 63.9998 195.688C64.9302 195.688 65.6874 194.93 65.6874 194C65.6874 193.07 64.9302 192.312 63.9998 192.312Z" fill="white"/>
</svg>
