<svg width="64" height="64" viewBox="0 0 64 64" fill="none" xmlns="http://www.w3.org/2000/svg">
<g clip-path="url(#clip0_3069_15198)">
<path d="M11.2728 49.7146H18.9092V31.1691L8.00006 22.9873V46.4419C8.00006 48.2528 9.46733 49.7146 11.2728 49.7146Z" fill="#4285F4"/>
<path d="M45.0911 49.7146H52.7274C54.5383 49.7146 56.0002 48.2473 56.0002 46.4419V22.9873L45.0911 31.1691" fill="#34A853"/>
<path d="M45.0911 16.9868V31.1687L56.0002 22.9868V18.6232C56.0002 14.5759 51.3802 12.2687 48.1456 14.6959" fill="#FBBC04"/>
<path d="M18.909 31.1689V16.9871L31.9999 26.8052L45.0908 16.9871V31.1689L31.9999 40.9871" fill="#EA4335"/>
<path d="M8.00006 18.6232V22.9868L18.9092 31.1687V16.9868L15.8546 14.6959C12.6146 12.2687 8.00006 14.5759 8.00006 18.6232Z" fill="#C5221F"/>
</g>
<defs>
<clipPath id="clip0_3069_15198">
<rect width="48" height="36" fill="white" transform="translate(8.00003 13.7141)"/>
</clipPath>
</defs>
</svg>
