<svg width="40" height="40" viewBox="0 0 40 40" fill="none" xmlns="http://www.w3.org/2000/svg">
<g id="storefront">
<mask id="mask0_3515_5718" style="mask-type:alpha" maskUnits="userSpaceOnUse" x="0" y="0" width="40" height="40">
<rect id="Bounding box" width="40" height="40" fill="#D9D9D9"/>
</mask>
<g mask="url(#mask0_3515_5718)">
<path id="storefront_2" d="M34.5918 18.2712V31.9763C34.5918 32.6942 34.3369 33.3082 33.8269 33.8181C33.3169 34.3281 32.703 34.5831 31.985 34.5831H8.00429C7.28635 34.5831 6.67239 34.3281 6.16242 33.8181C5.65244 33.3082 5.39746 32.6942 5.39746 31.9763V18.2391C4.66243 17.6465 4.15193 16.8974 3.86596 15.9918C3.57999 15.0862 3.58907 14.1501 3.89321 13.1835L5.59617 7.69425C5.81839 6.97489 6.19268 6.41542 6.71904 6.01584C7.24537 5.61628 7.86894 5.4165 8.58975 5.4165H31.2885C32.032 5.4165 32.6749 5.61414 33.2169 6.00942C33.7589 6.40473 34.1403 6.95566 34.3611 7.66221L36.1239 13.1835C36.428 14.1501 36.4325 15.0886 36.1373 15.9993C35.842 16.9099 35.3269 17.6672 34.5918 18.2712ZM23.7094 17.2862C24.6496 17.2862 25.3884 17.0032 25.9258 16.4373C26.4632 15.8714 26.6845 15.2427 26.5898 14.5511L25.515 7.51046H21.0555V14.4378C21.0555 15.2028 21.3116 15.8688 21.8237 16.4357C22.3358 17.0027 22.9644 17.2862 23.7094 17.2862ZM16.0684 17.2862C16.8996 17.2862 17.5896 17.0073 18.1384 16.4496C18.6872 15.8919 18.9616 15.2213 18.9616 14.4378V7.51046H14.4914L13.4166 14.6152C13.3269 15.237 13.5363 15.8376 14.0448 16.417C14.5534 16.9965 15.2279 17.2862 16.0684 17.2862ZM8.57267 17.2862C9.26569 17.2862 9.86435 17.0474 10.3686 16.5698C10.8729 16.0922 11.1738 15.5012 11.2714 14.7968L12.3313 7.51046H8.35258C8.17094 7.51046 8.02492 7.55052 7.9145 7.63063C7.80411 7.71077 7.72576 7.83098 7.67946 7.99125L5.95296 13.6622C5.68015 14.5176 5.79411 15.3355 6.29483 16.1158C6.79556 16.896 7.55483 17.2862 8.57267 17.2862ZM31.4167 17.2862C32.3597 17.2862 33.1072 16.9113 33.6592 16.1617C34.2112 15.412 34.3426 14.5789 34.0535 13.6622L32.2885 7.95921C32.2422 7.79894 32.1638 7.68407 32.0534 7.61463C31.943 7.54518 31.797 7.51046 31.6154 7.51046H27.6752L28.735 14.7968C28.8397 15.5012 29.1424 16.0922 29.6431 16.5698C30.1439 17.0474 30.735 17.2862 31.4167 17.2862ZM8.00429 32.4891H31.985C32.1275 32.4891 32.2486 32.4411 32.3483 32.3449C32.448 32.2488 32.4979 32.1259 32.4979 31.9763V19.2498C32.3918 19.3046 32.2383 19.34 32.0374 19.356C31.8366 19.3721 31.6296 19.3801 31.4167 19.3801C30.6966 19.3801 30.0386 19.2341 29.4428 18.9421C28.8471 18.6501 28.2671 18.1899 27.703 17.5617C27.2578 18.113 26.7101 18.5539 26.0598 18.8844C25.4096 19.2149 24.6546 19.3801 23.7949 19.3801C23.0463 19.3801 22.3722 19.2417 21.7725 18.965C21.1727 18.6883 20.5848 18.2619 20.0085 17.6857C19.5164 18.2391 18.9416 18.6599 18.2842 18.948C17.6268 19.236 16.943 19.3801 16.2329 19.3801C15.4509 19.3801 14.7279 19.2382 14.0641 18.9544C13.4003 18.6705 12.8276 18.2063 12.3462 17.5617C11.604 18.2626 10.9197 18.7409 10.2933 18.9965C9.66683 19.2522 9.09331 19.3801 8.57267 19.3801C8.37108 19.3801 8.17449 19.3721 7.98287 19.356C7.79129 19.34 7.62747 19.3046 7.49142 19.2498V31.9763C7.49142 32.1259 7.54128 32.2488 7.641 32.3449C7.74072 32.4411 7.86182 32.4891 8.00429 32.4891Z" fill="#00A49F"/>
</g>
</g>
</svg>
