<svg width="15" height="15" viewBox="0 0 15 15" fill="none" xmlns="http://www.w3.org/2000/svg">
<path d="M15 7.5C15 7.63877 14.9496 7.77186 14.8598 7.86999C14.77 7.96812 14.6482 8.02325 14.5213 8.02326H11.2725C12.0601 8.73592 12.4468 9.60167 12.4468 10.6395C12.457 11.2747 12.3255 11.9029 12.0637 12.4701C11.8019 13.0372 11.4176 13.5261 10.9442 13.8944C10.0629 14.6074 8.83967 15 7.5 15C5.31131 15 3.35788 13.7101 2.74966 11.8633C2.70698 11.7328 2.7134 11.5891 2.76751 11.4638C2.82162 11.3385 2.91901 11.2417 3.03831 11.1948C3.1576 11.1478 3.28906 11.1545 3.40383 11.2134C3.51861 11.2723 3.60733 11.3785 3.65054 11.5088C4.12455 12.9482 5.70751 13.9535 7.5 13.9535C9.48572 13.9535 11.4894 12.9288 11.4894 10.6395C11.4894 9.52787 10.8244 8.69483 9.39976 8.02326H0.478723C0.351758 8.02326 0.229993 7.96813 0.140215 7.87C0.0504367 7.77187 0 7.63878 0 7.5C0 7.36122 0.0504367 7.22813 0.140215 7.13C0.229993 7.03187 0.351758 6.97674 0.478723 6.97674H9.49238C9.49503 6.9767 9.49768 6.97674 9.50035 6.97674H14.5213C14.6482 6.97675 14.77 7.03188 14.8598 7.13001C14.9496 7.22814 15 7.36123 15 7.5ZM4.14948 5.2329C4.2275 5.23282 4.30433 5.21191 4.37327 5.17199C4.44221 5.13206 4.50119 5.07433 4.54507 5.00382C4.58896 4.93331 4.61642 4.85215 4.62507 4.76739C4.63372 4.68264 4.62329 4.59686 4.5947 4.51751C4.50365 4.24386 4.46069 3.95387 4.46808 3.66279C4.46808 2.22017 5.82821 1.04651 7.5 1.04651C9.05398 1.04651 10.3501 2.05142 10.5148 3.384C10.5318 3.52152 10.5981 3.64603 10.6991 3.73014C10.8001 3.81425 10.9275 3.85106 11.0533 3.83248C11.1791 3.81391 11.293 3.74146 11.37 3.63108C11.4469 3.5207 11.4806 3.38143 11.4636 3.24391C11.235 1.39458 9.53103 0 7.5 0C5.30024 0 3.51064 1.64314 3.51064 3.66279C3.50259 4.08537 3.56822 4.50577 3.70403 4.90152C3.73929 4.99923 3.80063 5.08308 3.88007 5.14218C3.95951 5.20128 4.05339 5.23289 4.14948 5.2329Z" fill="#3B414D"/>
</svg>
