<svg width="38" height="38" viewBox="0 0 38 38" fill="none" xmlns="http://www.w3.org/2000/svg">
<rect width="38" height="38" rx="4" fill="#C6F6D5"/>
<g opacity="0.9">
<path d="M10.5681 25.6065L10.6502 25.3618L10.4982 25.1531C9.23991 23.4252 8.5 21.2973 8.5 19C8.5 13.2094 13.2083 8.5 18.9971 8.5H19.0029C24.7916 8.5 29.5 13.2108 29.5 19C29.5 24.7891 24.7916 29.5 19.0029 29.5C16.8666 29.5 14.8874 28.865 13.2278 27.7653L13.0278 27.6329L12.7994 27.7059L9.51128 28.7568L10.5681 25.6065Z" fill="#51BA55" stroke="white"/>
<path d="M25.4036 23.5329C25.1382 24.2826 24.0849 24.9038 23.245 25.0856C22.6699 25.2078 21.9194 25.3056 19.3923 24.2578C16.1595 22.9186 14.0778 19.6336 13.9157 19.4205C13.7601 19.2073 12.6094 17.6813 12.6094 16.1026C12.6094 14.5241 13.4109 13.7554 13.7342 13.4257C13.9993 13.1545 14.438 13.031 14.8588 13.031C14.9949 13.031 15.1172 13.0377 15.2274 13.0433C15.5505 13.0572 15.7126 13.0763 15.9259 13.5864C16.1913 14.2259 16.8374 15.8043 16.9146 15.9667C16.993 16.129 17.0711 16.3488 16.9612 16.5619C16.858 16.782 16.7674 16.8796 16.6051 17.0665C16.4428 17.2538 16.2886 17.3967 16.1265 17.5973C15.9781 17.7719 15.8103 17.959 15.9974 18.2821C16.1843 18.5984 16.8304 19.6528 17.7818 20.4998C19.01 21.5929 20.0053 21.9422 20.3615 22.0908C20.6269 22.2009 20.9431 22.1746 21.1368 21.9684C21.383 21.7029 21.6871 21.263 21.9963 20.83C22.2163 20.5192 22.494 20.4807 22.7856 20.5906C23.0825 20.6938 24.6541 21.4707 24.9773 21.6316C25.3003 21.7938 25.5137 21.8708 25.592 22.007C25.669 22.1428 25.669 22.7824 25.4036 23.5329Z" fill="white"/>
</g>
</svg>
